<?xml version="1.0"?>
<svg xmlns:rdf="http://www.w3.org/1999/02/22-rdf-syntax-ns#" xmlns="http://www.w3.org/2000/svg" xmlns:cc="http://creativecommons.org/ns#" xmlns:xlink="http://www.w3.org/1999/xlink" xmlns:dc="http://purl.org/dc/elements/1.1/" xmlns:svg="http://www.w3.org/2000/svg" id="svg2" viewBox="0 0 610 610" version="1.1">
  <g id="layer4" transform="translate(5 -397.36)">
    <rect id="rect5840" stroke-linejoin="round" ry="1.5381" height="600" width="600" stroke="#4a0" y="402.36" x="0" stroke-width="10" fill="none"/>
  </g>
  <g id="layer1">
    <path id="path3279" fill="#4a0" d="m294.78 60.438c-30.88 0.42-61.76 18.158-84.06 63.372 0.37-8.6-34.57-30.45-45.6 12.81-73.207 25.59-50.14 104.32-26.71 135-18.28 95.99 46.4 122.01 88.71 99.91 16.96 24.59 35.38 58.72 36.88 90.63 2.55 54.18-11.87 97.84-0.97 97.84h68.66c-4.82-81.98 1.81-150.92 4.93-186 9.84-6.16 20.38-12.89 32.82-18.53 67.69 10.77 88.11-8.52 79.09-45.47 31.26 6.29 60.46-36.9 40.35-99.47-6.21-19.29-21.99-45.83-45.07-56.25 6.71-21.66-12.24-82.007-64.93-53.19-22.33-24.156-53.21-41.073-84.1-40.652zm-30.5 326.87c14.81 6.15 26.95 6.56 38.19 3.66-6.61 10.1-20.11 19.09-38.19-3.66z"/>
  </g>
  <metadata>
    <rdf:RDF>
      <cc:Work>
        <dc:format>image/svg+xml</dc:format>
        <dc:type rdf:resource="http://purl.org/dc/dcmitype/StillImage"/>
        <cc:license rdf:resource="http://creativecommons.org/licenses/publicdomain/"/>
        <dc:publisher>
          <cc:Agent rdf:about="http://openclipart.org/">
            <dc:title>Openclipart</dc:title>
          </cc:Agent>
        </dc:publisher>
        <dc:title>Eco green tree icon</dc:title>
        <dc:date>2013-08-22T20:40:31</dc:date>
        <dc:description/>
        <dc:source>http://openclipart.org/detail/182126/eco-green-tree-by-dominiquechappard-182126</dc:source>
        <dc:creator>
          <cc:Agent>
            <dc:title>dominiquechappard</dc:title>
          </cc:Agent>
        </dc:creator>
        <dc:subject>
          <rdf:Bag>
            <rdf:li>ecology</rdf:li>
            <rdf:li>green</rdf:li>
            <rdf:li>tree</rdf:li>
          </rdf:Bag>
        </dc:subject>
      </cc:Work>
      <cc:License rdf:about="http://creativecommons.org/licenses/publicdomain/">
        <cc:permits rdf:resource="http://creativecommons.org/ns#Reproduction"/>
        <cc:permits rdf:resource="http://creativecommons.org/ns#Distribution"/>
        <cc:permits rdf:resource="http://creativecommons.org/ns#DerivativeWorks"/>
      </cc:License>
    </rdf:RDF>
  </metadata>
</svg>
